<svg id="Layer_1" enable-background="new 0 0 512 512" height="512" viewBox="0 0 512 512" style="fill: white;" width="512" xmlns="http://www.w3.org/2000/svg"><g><path d="m392 512h-272c-66.168 0-120-53.832-120-120v-272c0-66.168 53.832-120 120-120h272c66.168 0 120 53.832 120 120v272c0 66.168-53.832 120-120 120zm-272-472c-44.112 0-80 35.888-80 80v272c0 44.112 35.888 80 80 80h272c44.112 0 80-35.888 80-80v-272c0-44.112-35.888-80-80-80z"/><path d="m256 392c-11.046 0-20-8.954-20-20v-153c0-11.046 8.954-20 20-20s20 8.954 20 20v153c0 11.046-8.954 20-20 20zm0-272c-13.807 0-25 11.193-25 25s11.193 25 25 25 25-11.193 25-25-11.193-25-25-25"/></g></svg>